# xmcd CD database file
# Copyright (C) 1996 Ti Kan
#
# Track frame offsets:
#	150
#	14972
#	36497
#	50610
#	66377
#	88792
#	110660
#	123295
#	144695
#	160490
#	177502
#	197512
#	209847
# Disc length: 3172 seconds
#
# Revision: 1
# Processed by: cddbd v1.4b41PL1 Copyright (c) Steve Scherf et al.
# Submitted via: CDCOPY 4.744
#
DISCID=d50c620d
DTITLE=Bootleg Shaman - Bootleg Shaman
DYEAR=1900
DGENRE=
TTITLE0=The Change
TTITLE1=Redbird "What I Have"
TTITLE2=Some Cowboys
TTITLE3=Feelin' That Way
TTITLE4=Frankenstein
TTITLE5=Wiccan Woman
TTITLE6=Take What You Want
TTITLE7=Rock-N-Roll Daddy
TTITLE8=It's Not Too Late
TTITLE9=It Takes Time
TTITLE10=Big Wednesday
TTITLE11=Little Wheel
TTITLE12=India
EXTD=
EXTT0=
EXTT1=
EXTT2=
EXTT3=
EXTT4=
EXTT5=
EXTT6=
EXTT7=
EXTT8=
EXTT9=
EXTT10=
EXTT11=
EXTT12=
PLAYORDER=
